<svg xmlns="http://www.w3.org/2000/svg" viewBox="0 0 322 322"><defs><style>.cls-1{fill:#232323;}.cls-2,.cls-3{isolation:isolate;font-size:14px;stroke-width:0.5px;}.cls-2{fill:#fffdfd;}.cls-2,.cls-3,.cls-4,.cls-6{stroke:#fff;}.cls-2,.cls-3,.cls-4,.cls-5,.cls-6{stroke-miterlimit:10;}.cls-2,.cls-3,.cls-7{font-family:Helvetica, Helvetica;}.cls-3,.cls-7{fill:#fff;}.cls-4,.cls-6{fill:none;}.cls-4{stroke-width:4px;}.cls-5{fill:#18f400;stroke:#07f400;stroke-width:10px;}.cls-7{font-size:21px;}</style></defs><title>Engine_RPM</title><g id="base"><circle class="cls-1" cx="161" cy="161" r="161"/></g><g id="Inscriptions"><text class="cls-2" x="-39.33" y="-38"><tspan x="141.04" y="235.66">x 100</tspan></text><text class="cls-3" transform="translate(142.45 110.14)">RPM</text></g><g id="Major"><line class="cls-4" x1="161" y1="11.9" x2="161" y2="35.33"/><line class="cls-4" x1="249.18" y1="40.71" x2="235.41" y2="59.67"/><line class="cls-5" x1="301.88" y1="110.63" x2="279.67" y2="118.02"/><line class="cls-4" x1="303.58" y1="115.85" x2="281.3" y2="123.09"/><line class="cls-4" x1="303.43" y1="208.61" x2="281.15" y2="201.37"/><line class="cls-4" x1="17.93" y1="208.15" x2="40.22" y2="200.91"/><line class="cls-4" x1="18.08" y1="115.39" x2="40.37" y2="122.63"/><line class="cls-4" x1="72.73" y1="40.43" x2="86.5" y2="59.38"/></g><g id="Minor"><line class="cls-6" x1="160.68" y1="11.9" x2="160.68" y2="22"/><line class="cls-6" x1="179.49" y1="13.09" x2="178.23" y2="23.11"/><line class="cls-6" x1="198.01" y1="16.62" x2="195.5" y2="26.4"/><line class="cls-6" x1="215.93" y1="22.45" x2="212.22" y2="31.84"/><line class="cls-6" x1="232.99" y1="30.48" x2="228.12" y2="39.32"/><line class="cls-6" x1="248.9" y1="40.58" x2="242.97" y2="48.75"/><line class="cls-6" x1="263.42" y1="52.59" x2="256.51" y2="59.95"/><line class="cls-6" x1="276.33" y1="66.34" x2="268.55" y2="72.77"/><line class="cls-6" x1="287.4" y1="81.59" x2="278.88" y2="87"/><line class="cls-6" x1="296.48" y1="98.1" x2="287.35" y2="102.4"/><line class="cls-6" x1="303.42" y1="115.63" x2="293.82" y2="118.75"/><line class="cls-6" x1="308.11" y1="133.89" x2="298.19" y2="135.78"/><line class="cls-6" x1="310.47" y1="152.59" x2="300.39" y2="153.22"/><line class="cls-6" x1="310.47" y1="171.44" x2="300.39" y2="170.8"/><line class="cls-6" x1="308.1" y1="190.14" x2="298.18" y2="188.25"/><line class="cls-6" x1="303.41" y1="208.4" x2="293.81" y2="205.28"/><line class="cls-6" x1="17.91" y1="208.37" x2="27.51" y2="205.25"/><line class="cls-6" x1="13.23" y1="190.11" x2="23.14" y2="188.22"/><line class="cls-6" x1="10.87" y1="171.41" x2="20.94" y2="170.78"/><line class="cls-6" x1="10.87" y1="152.56" x2="20.94" y2="153.2"/><line class="cls-6" x1="13.23" y1="133.86" x2="23.15" y2="135.75"/><line class="cls-6" x1="17.92" y1="115.6" x2="27.52" y2="118.72"/><line class="cls-6" x1="24.86" y1="98.08" x2="34" y2="102.38"/><line class="cls-6" x1="33.94" y1="81.56" x2="42.47" y2="86.97"/><line class="cls-6" x1="45.02" y1="66.31" x2="52.8" y2="72.75"/><line class="cls-6" x1="57.93" y1="52.58" x2="64.84" y2="59.94"/><line class="cls-6" x1="72.45" y1="40.56" x2="78.39" y2="48.73"/><line class="cls-6" x1="88.37" y1="30.46" x2="93.23" y2="39.31"/><line class="cls-6" x1="105.43" y1="22.44" x2="109.14" y2="31.83"/><line class="cls-6" x1="123.35" y1="16.62" x2="125.86" y2="26.4"/><line class="cls-6" x1="141.87" y1="13.09" x2="143.13" y2="23.1"/></g><g id="Nombres"><text class="cls-7" transform="translate(50.76 205.18)">10</text><text class="cls-7" transform="translate(48.76 134.18)">20</text><text class="cls-7" transform="translate(84.76 84.18)">30</text><text class="cls-7" transform="translate(149.76 62.18)">40</text><text class="cls-7" transform="translate(212.76 81.18)">50</text><text class="cls-7" transform="translate(251.76 135.18)">60</text><text class="cls-7" transform="translate(249.76 205.18)">70</text></g></svg>