<?xml version="1.0" encoding="utf-8"?>
<!-- Generator: Adobe Illustrator 21.0.0, SVG Export Plug-In . SVG Version: 6.00 Build 0)  -->
<svg version="1.1" xmlns="http://www.w3.org/2000/svg" xmlns:xlink="http://www.w3.org/1999/xlink" x="0px" y="0px"
	 viewBox="0 0 400 400" style="enable-background:new 0 0 400 400;" xml:space="preserve">
<style type="text/css">
	.st0{fill:#232323;}
	.st1{enable-background:new    ;}
	.st2{fill:#FFFDFD;stroke:#FFFFFF;stroke-width:0.5;stroke-miterlimit:10;}
	.st3{font-family:'Helvetica';}
	.st4{font-size:14px;}
	.st5{fill:#FFFFFF;stroke:#FFFFFF;stroke-width:0.5;stroke-miterlimit:10;}
	.st6{fill:#18F400;stroke:#07F400;stroke-miterlimit:10;}
	.st7{fill:none;stroke:#FFFFFF;stroke-width:4;stroke-miterlimit:10;}
	.st8{fill:#F71400;stroke:#FC0F03;stroke-width:4;stroke-miterlimit:10;}
	.st9{fill:none;stroke:#FFFFFF;stroke-miterlimit:10;}
	.st10{fill:none;}
	.st11{fill:#FFFFFF;}
	.st12{font-size:21px;}
</style>
<g id="base">
	<circle class="st0" cx="200.3" cy="200" r="161"/>
</g>
<g id="Inscriptions">
	<text transform="matrix(1 0 0 1 169.0934 240.0562)" class="st1"><tspan x="0" y="0" class="st2 st3 st4">Inches of</tspan><tspan x="3.1" y="16.8" class="st2 st3 st4">Mercury</tspan></text>
	<text transform="matrix(1 0 0 1 161.1645 148.136)" class="st1"><tspan x="0" y="0" class="st5 st3 st4">MANIFOLD</tspan><tspan x="-2.3" y="16.8" class="st5 st3 st4">PRESSURE</tspan></text>
</g>
<g id="Zone_Verte">
	<path class="st6" d="M219.4,50.8l-1.5,11.4c26.3,3.3,50.3,14,69.9,29.8l6.9-8.4C273.6,66.2,247.8,54.5,219.4,50.8z"/>
</g>
<g id="Major">
	<line class="st7" x1="200.3" y1="49.9" x2="200.3" y2="73.3"/>
	<line class="st7" x1="288.5" y1="78.7" x2="274.7" y2="97.7"/>
	<line class="st8" x1="296" y1="84.5" x2="281" y2="102.6"/>
	<line class="st7" x1="342.9" y1="153.8" x2="320.6" y2="161.1"/>
	<line class="st7" x1="342.8" y1="246.6" x2="320.5" y2="239.4"/>
	<line class="st7" x1="57.3" y1="246.2" x2="79.5" y2="238.9"/>
	<line class="st7" x1="57.4" y1="153.4" x2="79.7" y2="160.6"/>
	<line class="st7" x1="112.1" y1="78.4" x2="125.8" y2="97.4"/>
</g>
<g id="Minor">
	<line class="st9" x1="200" y1="49.9" x2="200" y2="60"/>
	<line class="st9" x1="218.8" y1="51.1" x2="217.6" y2="61.1"/>
	<line class="st9" x1="237.3" y1="54.6" x2="234.8" y2="64.4"/>
	<line class="st9" x1="255.3" y1="60.4" x2="251.5" y2="69.8"/>
	<line class="st9" x1="272.3" y1="68.5" x2="267.5" y2="77.3"/>
	<line class="st9" x1="288.2" y1="78.6" x2="282.3" y2="86.7"/>
	<line class="st9" x1="302.8" y1="90.6" x2="295.8" y2="98"/>
	<line class="st9" x1="315.7" y1="104.3" x2="307.9" y2="110.8"/>
	<line class="st9" x1="326.7" y1="119.6" x2="318.2" y2="125"/>
	<line class="st9" x1="335.8" y1="136.1" x2="326.7" y2="140.4"/>
	<line class="st9" x1="342.8" y1="153.6" x2="333.2" y2="156.8"/>
	<line class="st9" x1="347.4" y1="171.9" x2="337.5" y2="173.8"/>
	<line class="st9" x1="349.8" y1="190.6" x2="339.7" y2="191.2"/>
	<line class="st9" x1="349.8" y1="209.4" x2="339.7" y2="208.8"/>
	<line class="st9" x1="347.4" y1="228.1" x2="337.5" y2="226.2"/>
	<line class="st9" x1="342.7" y1="246.4" x2="333.1" y2="243.3"/>
	<line class="st9" x1="57.2" y1="246.4" x2="66.8" y2="243.2"/>
	<line class="st9" x1="52.6" y1="228.1" x2="62.5" y2="226.2"/>
	<line class="st9" x1="50.2" y1="209.4" x2="60.3" y2="208.8"/>
	<line class="st9" x1="50.2" y1="190.6" x2="60.3" y2="191.2"/>
	<line class="st9" x1="52.6" y1="171.9" x2="62.5" y2="173.8"/>
	<line class="st9" x1="57.3" y1="153.6" x2="66.9" y2="156.7"/>
	<line class="st9" x1="64.2" y1="136.1" x2="73.3" y2="140.4"/>
	<line class="st9" x1="73.3" y1="119.6" x2="81.8" y2="125"/>
	<line class="st9" x1="84.4" y1="104.3" x2="92.1" y2="110.8"/>
	<line class="st9" x1="97.3" y1="90.6" x2="104.2" y2="97.9"/>
	<line class="st9" x1="111.8" y1="78.6" x2="117.7" y2="86.7"/>
	<line class="st9" x1="127.7" y1="68.5" x2="132.6" y2="77.3"/>
	<line class="st9" x1="144.8" y1="60.4" x2="148.5" y2="69.8"/>
	<line class="st9" x1="162.7" y1="54.6" x2="165.2" y2="64.4"/>
	<line class="st9" x1="181.2" y1="51.1" x2="182.5" y2="61.1"/>
</g>
<g id="Nombres">
	<rect x="90.1" y="228.1" class="st10" width="21.9" height="16.9"/>
	<text transform="matrix(1 0 0 1 90.0972 243.1826)" class="st11 st3 st12">5</text>
	<rect x="88.1" y="157.1" class="st10" width="23.9" height="16.9"/>
	<text transform="matrix(1 0 0 1 88.0972 172.1826)" class="st11 st3 st12">10</text>
	<rect x="124.1" y="107.1" class="st10" width="23.9" height="16.9"/>
	<text transform="matrix(1 0 0 1 124.0972 122.1826)" class="st11 st3 st12">15</text>
	<rect x="189.1" y="85.1" class="st10" width="24.9" height="17.9"/>
	<text transform="matrix(1 0 0 1 189.0972 100.1826)" class="st11 st3 st12">20</text>
	<rect x="252.1" y="104.1" class="st10" width="23.9" height="15.9"/>
	<text transform="matrix(1 0 0 1 252.0967 119.1826)" class="st11 st3 st12">25</text>
	<rect x="291.1" y="158.1" class="st10" width="23.9" height="16.9"/>
	<text transform="matrix(1 0 0 1 291.0967 173.1826)" class="st11 st3 st12">30</text>
	<rect x="289.1" y="228.1" class="st10" width="23.9" height="16.9"/>
	<text transform="matrix(1 0 0 1 289.0967 243.1826)" class="st11 st3 st12">35</text>
</g>
</svg>
