<?xml version="1.0" encoding="utf-8"?>
<!-- Generator: Adobe Illustrator 21.0.0, SVG Export Plug-In . SVG Version: 6.00 Build 0)  -->
<svg version="1.1" xmlns="http://www.w3.org/2000/svg" xmlns:xlink="http://www.w3.org/1999/xlink" x="0px" y="0px"
	 viewBox="0 0 400 400" style="enable-background:new 0 0 400 400;" xml:space="preserve">
<style type="text/css">
	.st0{fill:#232323;}
	.st1{fill:#FFFDFD;stroke:#FFFFFF;stroke-width:0.5;stroke-miterlimit:10;}
	.st2{font-family:'Helvetica';}
	.st3{font-size:14px;}
	.st4{fill:none;stroke:#FFFFFF;stroke-miterlimit:10;}
	.st5{fill:none;stroke:#FFFFFF;stroke-width:3;stroke-miterlimit:10;}
	.st6{display:none;}
	.st7{display:inline;fill:none;stroke:#FFFFFF;stroke-miterlimit:10;}
	.st8{display:inline;fill:none;}
	.st9{display:inline;fill:#FFFFFF;}
	.st10{font-size:21px;}
</style>
<g id="base">
	<circle class="st0" cx="200.3" cy="200" r="161"/>
</g>
<g id="Inscriptions">
	<text transform="matrix(1 0 0 1 175.7761 326.0562)" class="st1 st2 st3">% RPM</text>
</g>
<g id="Major">
	<circle class="st4" cx="98.5" cy="200" r="100"/>
	<circle class="st4" cx="301.5" cy="199.5" r="100"/>
	<line class="st5" x1="98.5" y1="99.5" x2="98.5" y2="115.5"/>
	<line class="st5" x1="116" y1="101" x2="113.2" y2="116.8"/>
	<line class="st5" x1="132.9" y1="105.6" x2="127.4" y2="120.6"/>
	<line class="st5" x1="148.8" y1="113" x2="140.8" y2="126.8"/>
	<line class="st5" x1="163.1" y1="123" x2="152.8" y2="135.3"/>
	<line class="st5" x1="175.5" y1="135.4" x2="163.2" y2="145.7"/>
	<line class="st5" x1="185.5" y1="149.8" x2="171.7" y2="157.8"/>
	<line class="st5" x1="192.9" y1="165.6" x2="177.9" y2="171.1"/>
	<line class="st5" x1="197.5" y1="182.5" x2="181.7" y2="185.3"/>
	<line class="st5" x1="199" y1="200" x2="183" y2="200"/>
	<line class="st5" x1="197.5" y1="217.5" x2="181.7" y2="214.7"/>
	<line class="st5" x1="192.9" y1="234.4" x2="177.9" y2="228.9"/>
	<line class="st5" x1="185.5" y1="250.2" x2="171.7" y2="242.2"/>
	<line class="st5" x1="175.5" y1="264.6" x2="163.2" y2="254.3"/>
	<line class="st5" x1="163.1" y1="277" x2="152.8" y2="264.7"/>
	<line class="st5" x1="148.8" y1="287" x2="140.8" y2="273.2"/>
	<line class="st5" x1="132.9" y1="294.4" x2="127.4" y2="279.4"/>
	<line class="st5" x1="116" y1="299" x2="113.2" y2="283.2"/>
	<line class="st5" x1="98.5" y1="300.5" x2="98.5" y2="284.5"/>
</g>
<g id="Minor" class="st6">
	<line class="st7" x1="200" y1="49.9" x2="200" y2="60"/>
	<line class="st7" x1="218.8" y1="51.1" x2="217.6" y2="61.1"/>
	<line class="st7" x1="237.3" y1="54.6" x2="234.8" y2="64.4"/>
	<line class="st7" x1="255.3" y1="60.4" x2="251.5" y2="69.8"/>
	<line class="st7" x1="272.3" y1="68.5" x2="267.5" y2="77.3"/>
	<line class="st7" x1="288.2" y1="78.6" x2="282.3" y2="86.7"/>
	<line class="st7" x1="302.8" y1="90.6" x2="295.8" y2="98"/>
	<line class="st7" x1="315.7" y1="104.3" x2="307.9" y2="110.8"/>
	<line class="st7" x1="326.7" y1="119.6" x2="318.2" y2="125"/>
	<line class="st7" x1="335.8" y1="136.1" x2="326.7" y2="140.4"/>
	<line class="st7" x1="342.8" y1="153.6" x2="333.2" y2="156.8"/>
	<line class="st7" x1="347.4" y1="171.9" x2="337.5" y2="173.8"/>
	<line class="st7" x1="349.8" y1="190.6" x2="339.7" y2="191.2"/>
	<line class="st7" x1="349.8" y1="209.4" x2="339.7" y2="208.8"/>
	<line class="st7" x1="347.4" y1="228.1" x2="337.5" y2="226.2"/>
	<line class="st7" x1="342.7" y1="246.4" x2="333.1" y2="243.3"/>
	<line class="st7" x1="57.2" y1="246.4" x2="66.8" y2="243.2"/>
	<line class="st7" x1="52.6" y1="228.1" x2="62.5" y2="226.2"/>
	<line class="st7" x1="50.2" y1="209.4" x2="60.3" y2="208.8"/>
	<line class="st7" x1="50.2" y1="190.6" x2="60.3" y2="191.2"/>
	<line class="st7" x1="52.6" y1="171.9" x2="62.5" y2="173.8"/>
	<line class="st7" x1="57.3" y1="153.6" x2="66.9" y2="156.7"/>
	<line class="st7" x1="64.2" y1="136.1" x2="73.3" y2="140.4"/>
	<line class="st7" x1="73.3" y1="119.6" x2="81.8" y2="125"/>
	<line class="st7" x1="84.4" y1="104.3" x2="92.1" y2="110.8"/>
	<line class="st7" x1="97.3" y1="90.6" x2="104.2" y2="97.9"/>
	<line class="st7" x1="111.8" y1="78.6" x2="117.7" y2="86.7"/>
	<line class="st7" x1="127.7" y1="68.5" x2="132.6" y2="77.3"/>
	<line class="st7" x1="144.8" y1="60.4" x2="148.5" y2="69.8"/>
	<line class="st7" x1="162.7" y1="54.6" x2="165.2" y2="64.4"/>
	<line class="st7" x1="181.2" y1="51.1" x2="182.5" y2="61.1"/>
</g>
<g id="Nombres" class="st6">
	<rect x="90.1" y="228.1" class="st8" width="21.9" height="16.9"/>
	<text transform="matrix(1 0 0 1 90.0972 243.1826)" class="st9 st2 st10">5</text>
	<rect x="88.1" y="157.1" class="st8" width="23.9" height="16.9"/>
	<text transform="matrix(1 0 0 1 88.0972 172.1826)" class="st9 st2 st10">10</text>
	<rect x="124.1" y="107.1" class="st8" width="23.9" height="16.9"/>
	<text transform="matrix(1 0 0 1 124.0972 122.1826)" class="st9 st2 st10">15</text>
	<rect x="189.1" y="85.1" class="st8" width="24.9" height="17.9"/>
	<text transform="matrix(1 0 0 1 189.0972 100.1826)" class="st9 st2 st10">20</text>
	<rect x="252.1" y="104.1" class="st8" width="23.9" height="15.9"/>
	<text transform="matrix(1 0 0 1 252.0967 119.1826)" class="st9 st2 st10">25</text>
	<rect x="291.1" y="158.1" class="st8" width="23.9" height="16.9"/>
	<text transform="matrix(1 0 0 1 291.0967 173.1826)" class="st9 st2 st10">30</text>
	<rect x="289.1" y="228.1" class="st8" width="23.9" height="16.9"/>
	<text transform="matrix(1 0 0 1 289.0967 243.1826)" class="st9 st2 st10">35</text>
</g>
</svg>
