<?xml version="1.0" encoding="utf-8"?>
<!-- Generator: Adobe Illustrator 21.0.0, SVG Export Plug-In . SVG Version: 6.00 Build 0)  -->
<svg version="1.1" xmlns="http://www.w3.org/2000/svg" xmlns:xlink="http://www.w3.org/1999/xlink" x="0px" y="0px"
	 viewBox="0 0 400 400" style="enable-background:new 0 0 400 400;" xml:space="preserve">
<style type="text/css">
	.st0{fill:#232323;}
	.st1{fill:#FFFDFD;stroke:#FFFFFF;stroke-width:0.5;stroke-miterlimit:10;}
	.st2{font-family:'Helvetica';}
	.st3{font-size:14px;}
	.st4{fill:none;}
	.st5{fill:#FFFFFF;}
	.st6{font-size:21px;}
	.st7{fill:none;stroke:#FFFFFF;stroke-width:3;stroke-miterlimit:10;}
	.st8{fill:none;stroke:#FFFFFF;stroke-miterlimit:10;}
	.st9{opacity:0.9;fill:none;stroke:#FFFFFF;stroke-miterlimit:10;}
	.st10{fill:#39B54A;stroke:#FFFFFF;stroke-miterlimit:10;}
	.st11{fill:#FF0000;stroke:#FFFFFF;stroke-miterlimit:10;}
	.st12{fill:#FFFF00;stroke:#FFFFFF;stroke-miterlimit:10;}
	.st13{display:none;}
	.st14{display:inline;fill:none;stroke:#FFFFFF;stroke-miterlimit:10;}
	.st15{display:inline;opacity:0.9;fill:none;stroke:#FFFFFF;stroke-miterlimit:10;}
</style>
<g id="base">
	<path class="st0" d="M361.3,200c0,88.7-71.7,160.6-160.3,161h-0.7c-4.3,0-8.5-0.2-12.8-0.5c-30.8-2.4-59.1-13.5-82.6-30.8
		C65.2,300.5,39.3,253.2,39.3,200S65.2,99.5,105,70.2C131.7,50.6,164.7,39,200.3,39h0.7C289.6,39.4,361.3,111.3,361.3,200z"/>
</g>
<g id="Inscriptions">
	<text transform="matrix(1 0 0 1 175.7761 326.0562)" class="st1 st2 st3">% RPM</text>
	<rect x="141.2" y="64.1" class="st4" width="14.8" height="16.9"/>
	<text transform="matrix(1 0 0 1 141.2319 79.166)" class="st5 st2 st6">E</text>
	<rect x="242.2" y="64.1" class="st4" width="16.8" height="16.9"/>
	<text transform="matrix(1 0 0 1 242.2314 79.166)" class="st5 st2 st6">R</text>
</g>
<g id="Major">
	<line class="st7" x1="152.7" y1="101" x2="133.6" y2="120.1"/>
	<line class="st7" x1="174.9" y1="130.2" x2="151.5" y2="143.7"/>
	<line class="st7" x1="188.8" y1="164.1" x2="162.8" y2="171.1"/>
	<line class="st7" x1="193.5" y1="200.5" x2="166.5" y2="200.5"/>
	<line class="st7" x1="188.6" y1="236.8" x2="162.5" y2="229.9"/>
	<line class="st7" x1="174.4" y1="270.7" x2="151" y2="257.2"/>
	<line class="st7" x1="152" y1="299.7" x2="132.9" y2="280.6"/>
</g>
<g id="Minor">
	<g>
		<line class="st8" x1="152.5" y1="101.9" x2="145.4" y2="109"/>
	</g>
	<g>
		<line class="st8" x1="157.5" y1="107.2" x2="150" y2="113.9"/>
	</g>
	<g>
		<line class="st8" x1="162.2" y1="112.8" x2="154.4" y2="119.1"/>
	</g>
	<g>
		<line class="st8" x1="166.5" y1="118.6" x2="158.5" y2="124.5"/>
	</g>
	<g>
		<line class="st8" x1="170.6" y1="124.6" x2="162.2" y2="130.1"/>
	</g>
	<g>
		<line class="st8" x1="174.4" y1="130.9" x2="165.7" y2="135.9"/>
	</g>
	<g>
		<line class="st8" x1="177.8" y1="137.3" x2="168.9" y2="141.8"/>
	</g>
	<g>
		<line class="st8" x1="180.9" y1="143.9" x2="171.8" y2="147.9"/>
	</g>
	<g>
		<line class="st8" x1="183.6" y1="150.6" x2="174.3" y2="154.2"/>
	</g>
	<g>
		<line class="st8" x1="186" y1="157.5" x2="176.5" y2="160.6"/>
	</g>
	<g>
		<line class="st8" x1="188" y1="164.5" x2="178.4" y2="167.1"/>
	</g>
	<g>
		<line class="st8" x1="189.7" y1="171.6" x2="179.9" y2="173.7"/>
	</g>
	<g>
		<line class="st8" x1="190.9" y1="178.7" x2="181.1" y2="180.3"/>
	</g>
	<g>
		<line class="st8" x1="191.8" y1="186" x2="181.9" y2="187"/>
	</g>
	<g>
		<line class="st8" x1="192.4" y1="193.2" x2="182.4" y2="193.7"/>
	</g>
	<g>
		<line class="st8" x1="192.5" y1="200.5" x2="182.5" y2="200.5"/>
	</g>
	<g>
		<line class="st8" x1="192.3" y1="207.8" x2="182.3" y2="207.2"/>
	</g>
	<g>
		<line class="st8" x1="191.6" y1="215" x2="181.7" y2="214"/>
	</g>
	<g>
		<line class="st8" x1="190.6" y1="222.2" x2="180.8" y2="220.7"/>
	</g>
	<g>
		<line class="st8" x1="189.3" y1="229.4" x2="179.5" y2="227.3"/>
	</g>
	<g>
		<line class="st8" x1="187.5" y1="236.4" x2="177.8" y2="233.9"/>
	</g>
	<g>
		<line class="st8" x1="185.4" y1="243.4" x2="175.9" y2="240.3"/>
	</g>
	<g>
		<line class="st8" x1="182.9" y1="250.2" x2="173.6" y2="246.7"/>
	</g>
	<g>
		<line class="st8" x1="180.1" y1="256.9" x2="170.9" y2="252.9"/>
	</g>
	<g>
		<line class="st8" x1="176.9" y1="263.5" x2="168" y2="259"/>
	</g>
	<g>
		<line class="st8" x1="173.4" y1="269.9" x2="164.7" y2="264.9"/>
	</g>
	<g>
		<line class="st8" x1="169.5" y1="276" x2="161.1" y2="270.6"/>
	</g>
	<g>
		<line class="st8" x1="165.4" y1="282" x2="157.3" y2="276.1"/>
	</g>
	<g>
		<line class="st8" x1="160.9" y1="287.8" x2="153.1" y2="281.5"/>
	</g>
	<g>
		<line class="st8" x1="156.1" y1="293.3" x2="148.7" y2="286.6"/>
	</g>
</g>
<g id="zones_couleurs">
	<polyline class="st8" points="200.5,94.2 201,93.9 201.5,93.5 	"/>
	<polyline class="st8" points="201.5,239.5 201,239.4 200.5,239.2 	"/>
	<polyline class="st8" points="200.5,132 201,131.7 201.5,131.5 	"/>
	<path class="st9" d="M192.3,200c0,12.4-1.6,24.3-4.6,35.8c-3.2,12.3-8.1,23.9-14.4,34.7C157.8,297,133.8,318,105,329.8
		C65.2,300.5,39.3,253.2,39.3,200S65.2,99.5,105,70.2c17.9,7.3,34,18.2,47.3,31.8c5.1,5.2,9.8,10.8,14,16.7
		c5.1,7.1,9.6,14.8,13.3,22.9c3.4,7.4,6.2,15.2,8.3,23.2C190.8,176,192.3,187.8,192.3,200z"/>
	<path class="st10" d="M200.5,94.2V132l-20.9,9.6c-3.7-8.1-8.2-15.7-13.3-22.9L200.5,94.2z"/>
	<path class="st11" d="M200.5,132v29.5l-12.6,3.3c-2.1-8-4.9-15.8-8.3-23.2L200.5,132z"/>
	<path class="st8" d="M200.5,161.5v77.7l-12.8-3.5c3-11.4,4.6-23.4,4.6-35.8c0-12.2-1.5-24-4.5-35.2L200.5,161.5z"/>
	<path class="st12" d="M200.5,239.2v47.3l-27.2-16.1c6.3-10.7,11.1-22.4,14.4-34.7L200.5,239.2z"/>
	<path class="st11" d="M200.5,54.5v39.7l-34.2,24.5c-4.2-5.9-8.9-11.5-14-16.7L200.5,54.5z"/>
</g>
<g id="Calque_8">
	<line class="st7" x1="247.6" y1="101" x2="266.7" y2="120.1"/>
	<line class="st7" x1="225.4" y1="130.2" x2="248.8" y2="143.7"/>
	<line class="st7" x1="211.5" y1="164.1" x2="237.6" y2="171.1"/>
	<line class="st7" x1="206.8" y1="200.5" x2="233.8" y2="200.5"/>
	<line class="st7" x1="211.7" y1="236.8" x2="237.8" y2="229.9"/>
	<line class="st7" x1="225.9" y1="270.7" x2="249.3" y2="257.2"/>
	<line class="st7" x1="248.3" y1="299.7" x2="267.4" y2="280.6"/>
	<g>
		<line class="st8" x1="247.8" y1="101.9" x2="254.9" y2="109"/>
	</g>
	<g>
		<line class="st8" x1="242.9" y1="107.2" x2="250.3" y2="113.9"/>
	</g>
	<g>
		<line class="st8" x1="238.2" y1="112.8" x2="245.9" y2="119.1"/>
	</g>
	<g>
		<line class="st8" x1="233.8" y1="118.6" x2="241.9" y2="124.5"/>
	</g>
	<g>
		<line class="st8" x1="229.7" y1="124.6" x2="238.1" y2="130.1"/>
	</g>
	<g>
		<line class="st8" x1="226" y1="130.9" x2="234.6" y2="135.9"/>
	</g>
	<g>
		<line class="st8" x1="222.5" y1="137.3" x2="231.4" y2="141.8"/>
	</g>
	<g>
		<line class="st8" x1="219.4" y1="143.9" x2="228.6" y2="147.9"/>
	</g>
	<g>
		<line class="st8" x1="216.7" y1="150.6" x2="226" y2="154.2"/>
	</g>
	<g>
		<line class="st8" x1="214.3" y1="157.5" x2="223.8" y2="160.6"/>
	</g>
	<g>
		<line class="st8" x1="212.3" y1="164.5" x2="222" y2="167.1"/>
	</g>
	<g>
		<line class="st8" x1="210.7" y1="171.6" x2="220.4" y2="173.7"/>
	</g>
	<g>
		<line class="st8" x1="209.4" y1="178.7" x2="219.3" y2="180.3"/>
	</g>
	<g>
		<line class="st8" x1="208.5" y1="186" x2="218.4" y2="187"/>
	</g>
	<g>
		<line class="st8" x1="208" y1="193.2" x2="218" y2="193.7"/>
	</g>
	<g>
		<line class="st8" x1="207.8" y1="200.5" x2="217.8" y2="200.5"/>
	</g>
	<g>
		<line class="st8" x1="208.1" y1="207.8" x2="218.1" y2="207.2"/>
	</g>
	<g>
		<line class="st8" x1="208.7" y1="215" x2="218.6" y2="214"/>
	</g>
	<g>
		<line class="st8" x1="209.7" y1="222.2" x2="219.6" y2="220.7"/>
	</g>
	<g>
		<line class="st8" x1="211.1" y1="229.4" x2="220.9" y2="227.3"/>
	</g>
	<g>
		<line class="st8" x1="212.8" y1="236.4" x2="222.5" y2="233.9"/>
	</g>
	<g>
		<line class="st8" x1="214.9" y1="243.4" x2="224.5" y2="240.3"/>
	</g>
	<g>
		<line class="st8" x1="217.4" y1="250.2" x2="226.8" y2="246.7"/>
	</g>
	<g>
		<line class="st8" x1="220.3" y1="256.9" x2="229.4" y2="252.9"/>
	</g>
	<g>
		<line class="st8" x1="223.4" y1="263.5" x2="232.3" y2="259"/>
	</g>
	<g>
		<line class="st8" x1="227" y1="269.9" x2="235.6" y2="264.9"/>
	</g>
	<g>
		<line class="st8" x1="230.8" y1="276" x2="239.2" y2="270.6"/>
	</g>
	<g>
		<line class="st8" x1="235" y1="282" x2="243.1" y2="276.1"/>
	</g>
	<g>
		<line class="st8" x1="239.4" y1="287.8" x2="247.2" y2="281.5"/>
	</g>
	<g>
		<line class="st8" x1="244.2" y1="293.3" x2="251.6" y2="286.6"/>
	</g>
	<polyline class="st8" points="198.8,93.5 199.3,93.9 199.8,94.2 	"/>
	<polyline class="st8" points="199.8,239.2 199.3,239.4 198.8,239.5 	"/>
	<polyline class="st8" points="198.8,131.5 199.3,131.7 199.8,132 	"/>
	<path class="st9" d="M208,200c0,12.4,1.6,24.3,4.6,35.8c3.2,12.3,8.1,23.9,14.4,34.7c15.5,26.6,39.5,47.6,68.3,59.3
		C335.2,300.5,361,253.2,361,200S335.2,99.5,295.3,70.2c-17.9,7.3-34,18.2-47.3,31.8c-5.1,5.2-9.8,10.8-14,16.7
		c-5.1,7.1-9.6,14.8-13.3,22.9c-3.4,7.4-6.2,15.2-8.3,23.2C209.5,176,208,187.8,208,200z"/>
	<path class="st10" d="M199.8,94.2V132l20.9,9.6c3.7-8.1,8.2-15.7,13.3-22.9L199.8,94.2z"/>
	<path class="st12" d="M199.8,132v29.5l12.6,3.3c2.1-8,4.9-15.8,8.3-23.2L199.8,132z"/>
	<path class="st8" d="M199.8,161.5v77.7l12.8-3.5c-3-11.4-4.6-23.4-4.6-35.8c0-12.2,1.5-24,4.5-35.2L199.8,161.5z"/>
	<path class="st12" d="M199.8,239.2v47.3l27.2-16.1c-6.3-10.7-11.1-22.4-14.4-34.7L199.8,239.2z"/>
	<path class="st12" d="M199.8,54.5v39.7l34.2,24.5c4.2-5.9,8.9-11.5,14-16.7L199.8,54.5z"/>
</g>
<g id="zones_couleurs_-_copie" class="st13">
	<line class="st14" x1="201" y1="-24" x2="201" y2="380"/>
	<line class="st14" x1="53.5" y1="199.5" x2="200.5" y2="54.5"/>
	<polyline class="st14" points="201.5,93.5 201,93.9 200.5,94.2 	"/>
	<line class="st14" x1="166.3" y1="118.7" x2="53.5" y2="199.5"/>
	<line class="st14" x1="173.4" y1="270.4" x2="53.5" y2="199.5"/>
	<line class="st14" x1="187.7" y1="235.8" x2="53.5" y2="199.5"/>
	<polyline class="st14" points="200.5,239.2 201,239.4 201.5,239.5 	"/>
	<line class="st14" x1="179.6" y1="141.6" x2="53.5" y2="199.5"/>
	<polyline class="st14" points="200.5,132 201,131.7 201.5,131.5 	"/>
	<path class="st15" d="M192.3,200c0,12.4-1.6,24.3-4.6,35.8c-3.2,12.3-8.1,23.9-14.4,34.7C149.1,312,104,340,52.3,340
		c-13.5,0-26.5-1.9-38.8-5.5C-44.9,317.7-87.7,263.8-87.7,200S-44.9,82.3,13.5,65.5C25.8,61.9,38.9,60,52.3,60
		c39.2,0,74.6,16.1,100,42c5.1,5.2,9.8,10.8,14,16.7c5.1,7.1,9.6,14.8,13.3,22.9c3.4,7.4,6.2,15.2,8.3,23.2
		C190.8,176,192.3,187.8,192.3,200z"/>
	<line class="st14" x1="187.9" y1="164.8" x2="53.5" y2="199.5"/>
	<path class="st14" d="M200.5,94.2V132l-20.9,9.6c-3.7-8.1-8.2-15.7-13.3-22.9L200.5,94.2z"/>
	<path class="st14" d="M200.5,132v29.5l-12.6,3.3c-2.1-8-4.9-15.8-8.3-23.2L200.5,132z"/>
	<path class="st14" d="M200.5,161.5v77.7l-12.8-3.5c3-11.4,4.6-23.4,4.6-35.8c0-12.2-1.5-24-4.5-35.2L200.5,161.5z"/>
	<path class="st14" d="M200.5,239.2v47.3l-27.2-16.1c6.3-10.7,11.1-22.4,14.4-34.7L200.5,239.2z"/>
	<path class="st14" d="M200.5,38.5v55.7l-34.2,24.5c5.1,7.1,9.6,14.8,13.3,22.9c3.4,7.4,6.2,15.2,8.3,23.2
		c2.9,11.3,4.5,23.1,4.5,35.2c0,12.4-1.6,24.3-4.6,35.8c-3.2,12.3-8.1,23.9-14.4,34.7l27.2,16.1v74h-187v-322H200.5z"/>
</g>
<g id="Nombres">
	<rect x="109.9" y="149.2" class="st4" width="35.1" height="15.8"/>
	<text transform="matrix(1 0 0 1 109.9482 164.3047)" class="st5 st2 st6">100</text>
	<rect x="100.9" y="127.2" class="st4" width="35.1" height="15.8"/>
	<text transform="matrix(1 0 0 1 100.9482 142.3047)" class="st5 st2 st6">110</text>
	<rect x="121.9" y="192.2" class="st4" width="24.1" height="15.8"/>
	<text transform="matrix(1 0 0 1 121.9482 207.3047)" class="st5 st2 st6">80</text>
	<rect x="120.9" y="171.2" class="st4" width="24.1" height="15.8"/>
	<text transform="matrix(1 0 0 1 120.9482 186.3047)" class="st5 st2 st6">90</text>
	<rect x="120.9" y="213.2" class="st4" width="24.1" height="15.8"/>
	<text transform="matrix(1 0 0 1 120.9482 228.3047)" class="st5 st2 st6">70</text>
	<rect x="115.9" y="235.2" class="st4" width="24.1" height="15.8"/>
	<text transform="matrix(1 0 0 1 115.9482 250.3047)" class="st5 st2 st6">60</text>
	<rect x="105.9" y="258.2" class="st4" width="24.1" height="15.8"/>
	<text transform="matrix(1 0 0 1 105.9482 273.3047)" class="st5 st2 st6">50</text>
	<rect x="258.3" y="149.2" class="st4" width="35.1" height="15.8"/>
	<text transform="matrix(1 0 0 1 258.33 164.3047)" class="st5 st2 st6">100</text>
	<rect x="266.3" y="127.2" class="st4" width="35.1" height="15.8"/>
	<text transform="matrix(1 0 0 1 266.33 142.3047)" class="st5 st2 st6">110</text>
	<rect x="257.3" y="192.2" class="st4" width="24.1" height="15.8"/>
	<text transform="matrix(1 0 0 1 257.33 207.3047)" class="st5 st2 st6">80</text>
	<rect x="256.3" y="171.2" class="st4" width="24.1" height="15.8"/>
	<text transform="matrix(1 0 0 1 256.33 186.3047)" class="st5 st2 st6">90</text>
	<rect x="259.3" y="213.2" class="st4" width="24.1" height="15.8"/>
	<text transform="matrix(1 0 0 1 259.33 228.3047)" class="st5 st2 st6">70</text>
	<rect x="263.3" y="235.2" class="st4" width="24.1" height="15.8"/>
	<text transform="matrix(1 0 0 1 263.33 250.3047)" class="st5 st2 st6">60</text>
	<rect x="271.3" y="257.2" class="st4" width="24.1" height="15.8"/>
	<text transform="matrix(1 0 0 1 271.33 272.3047)" class="st5 st2 st6">50</text>
</g>
</svg>
