<svg id="Calque_1" data-name="Calque 1" xmlns="http://www.w3.org/2000/svg" viewBox="0 0 185.63 185.63"><defs><style>.cls-1{fill:#ff0;}.cls-2{font-size:19px;font-family:MyriadPro-Regular, Myriad Pro;}</style></defs><title>STOP</title><circle class="cls-1" cx="92.83" cy="92.89" r="64"/><text class="cls-2" transform="translate(43.49 83.36) rotate(-73.83)">S</text><text class="cls-2" transform="translate(45.9 74.86) rotate(-63.67)">T</text><text class="cls-2" transform="matrix(0.62, -0.79, 0.79, 0.62, 49.34, 67.25)">O</text><text class="cls-2" transform="matrix(0.78, -0.63, 0.63, 0.78, 57, 57.51)">P</text><text class="cls-2" transform="translate(64.63 51.48) rotate(-32.03)"> </text><text class="cls-2" transform="translate(67.78 49.44) rotate(-26.69)">-</text><text class="cls-2" transform="translate(72.73 46.98) rotate(-21.35)"> </text><text class="cls-2" transform="matrix(0.97, -0.24, 0.24, 0.97, 76.05, 45.48)">S</text><text class="cls-2" transform="translate(84.61 43.28) rotate(-3.96)">T</text><text class="cls-2" transform="translate(92.91 42.41) rotate(7.56)">O</text><text class="cls-2" transform="translate(105.22 44.13) rotate(20.01)">P</text><text class="cls-2" transform="translate(114.25 47.6) rotate(27.64)"> </text><text class="cls-2" transform="matrix(0.84, 0.54, -0.54, 0.84, 117.6, 49.3)">-</text><text class="cls-2" transform="translate(122.22 52.33) rotate(38.34)"> </text><text class="cls-2" transform="translate(125.19 54.44) rotate(45.56)">S</text><text class="cls-2" transform="translate(131.42 60.72) rotate(55.57)">T</text><text class="cls-2" transform="translate(136.38 67.43) rotate(67.19)">O</text><text class="cls-2" transform="matrix(0.18, 0.98, -0.98, 0.18, 141.12, 78.93)">P</text><text class="cls-2" transform="translate(142.66 88.47) rotate(87.35)"> </text><text class="cls-2" transform="translate(142.89 92.22) rotate(92.65)">-</text><text class="cls-2" transform="translate(142.61 97.75) rotate(97.93)"> </text><text class="cls-2" transform="translate(142.3 101.38) rotate(105.1)">S</text><text class="cls-2" transform="translate(140.05 109.91) rotate(115.23)">T</text><text class="cls-2" transform="translate(136.75 117.6) rotate(126.91)">O</text><text class="cls-2" transform="translate(129.23 127.43) rotate(139.07)">P</text><text class="cls-2" transform="matrix(-0.84, 0.55, -0.55, -0.84, 121.77, 133.65)"> </text><text class="cls-2" transform="matrix(-0.88, 0.47, -0.47, -0.88, 118.66, 135.74)">-</text><text class="cls-2" transform="matrix(-0.92, 0.38, -0.38, -0.92, 113.75, 138.3)"> </text><text class="cls-2" transform="translate(110.47 139.86) rotate(164.81)">S</text><text class="cls-2" transform="translate(101.94 142.23) rotate(174.97)">T</text><text class="cls-2" transform="translate(93.65 143.25) rotate(-173.51)">O</text><text class="cls-2" transform="matrix(-0.95, -0.32, 0.32, -0.95, 81.32, 141.76)">P</text><text class="cls-2" transform="translate(72.22 138.45) rotate(-153.43)"> </text><text class="cls-2" transform="translate(68.85 136.83) rotate(-148.08)">-</text><text class="cls-2" transform="matrix(-0.8, -0.61, 0.61, -0.8, 64.16, 133.88)"> </text><text class="cls-2" transform="translate(61.15 131.83) rotate(-135.51)">S</text><text class="cls-2" transform="translate(54.82 125.68) rotate(-125.51)">T</text><text class="cls-2" transform="translate(49.72 119.04) rotate(-113.88)">O</text><text class="cls-2" transform="translate(44.77 107.65) rotate(-101.31)">P</text><text class="cls-2" transform="matrix(-0.06, -1, 1, -0.06, 43.05, 98.13)"> </text><text class="cls-2" transform="translate(42.75 94.39) rotate(-88.42)">-</text><text class="cls-2" transform="translate(42.93 88.87) rotate(-83.17)"> </text><text x="28.83" y="28.89"></text></svg>